<svg width="524" height="504" viewBox="0 0 524 504" fill="none" xmlns="http://www.w3.org/2000/svg">
<path d="M447.693 286.368L423.493 300.883C402.941 313.21 384.914 329.322 370.365 348.365L307.843 430.199C280.932 465.422 241.844 489.336 198.23 497.258L179.49 500.662C115.127 512.353 50.5219 481.447 19.2358 423.997C-27.3318 338.486 17.6211 231.873 111.356 205.52L140.164 197.421C186.598 184.366 225.612 152.773 248.036 110.067L268.154 71.7523C298.715 13.5481 367.336 -13.4401 429.359 8.35166C465.518 21.056 494.402 48.7969 508.556 84.4129L512.574 94.5235C540.873 165.731 513.403 246.954 447.693 286.368Z" fill="url(#paint0_radial_46_29)"/>
<defs>
<radialGradient id="paint0_radial_46_29" cx="0" cy="0" r="1" gradientUnits="userSpaceOnUse" gradientTransform="translate(198.814 37.8414) rotate(75.4368) scale(482.582 554.346)">
<stop stop-color="#E28531"/>
<stop offset="1" stop-color="#F6E2BD"/>
</radialGradient>
</defs>
</svg>
